<svg xmlns="http://www.w3.org/2000/svg" viewBox="0 0 739.09 29"><defs><style>.cls-1{fill:#0071bc;}</style></defs><title>Asset 1</title><g id="Layer_2" data-name="Layer 2"><g id="Layer_1-2" data-name="Layer 1"><path class="cls-1" d="M730.14,29V25.6l-26-11.94,26-11.73L730.22,0H735c-1.51,0-2.91,1.34-4.16,2.14-.25.16-.5.25-.75.42-4.78,3.27-7.31,7.06-7.31,11s2.53,7.77,7.31,11c.31.21.63.45,1,.66A37.67,37.67,0,0,0,738.68,29Z"/><path d="M734.68,0c-1.4,0-2.7,1.29-3.88,2-.26.16-.51.27-.75.44-4.8,3.29-7.34,7.1-7.34,11.09s2.54,7.82,7.34,11.1c.31.21.63.49,1,.7A38.78,38.78,0,0,0,738.28,29h-8.14V25.47L704.36,13.66,730.11,1.85l0,0V0h5m.19,0h-5.19V1.72L704,13.66l26.1,11.94V29h9a42.58,42.58,0,0,1-8-3.83l-1-.63c-4.6-3.14-7.28-6.93-7.28-11s2.68-7.85,7.28-11c.24-.17.49-.15.74-.31,1.34-.86,2.83-2.24,4.45-2.24Z"/><path class="cls-1" d="M695.14,29V25.6L669.07,13.66,695,1.93V0h4.79c-1.5,0-2.9,1.33-4.16,2.14-.25.16-.5.26-.75.42-4.78,3.29-7.31,7.08-7.31,11s2.53,7.77,7.31,11c.31.21.63.45,1,.66A37.67,37.67,0,0,0,703.47,29Z"/><path d="M699.47,0c-1.4,0-2.7,1.29-3.88,2-.25.16-.51.27-.75.44C690,5.79,687.5,9.6,687.5,13.57s2.54,7.82,7.34,11.1c.31.21.63.49,1,.7A38.79,38.79,0,0,0,703.07,29h-7.92V25.51l-.12,0L669.19,13.66,695,1.85l.11,0V0h4m1,0h-5V1.72L669,13.66l26.1,11.94V29h8.73a42.58,42.58,0,0,1-8-3.83l-1-.63c-4.6-3.14-7.28-6.93-7.28-11s2.69-7.84,7.28-11c.24-.17.49-.15.74-.31C697,1.38,698.5,0,700.12,0Z"/><path class="cls-1" d="M660.14,29V25.6L634,13.66,659.83,1.93l0-1.93h4.79c-1.5,0-2.9,1.33-4.16,2.14-.25.16-.5.26-.75.42-4.78,3.29-7.31,7.08-7.31,11s2.53,7.76,7.31,11c.31.21.63.45,1,.66A37.67,37.67,0,0,0,668.25,29Z"/><path d="M664.25,0c-1.4,0-2.7,1.29-3.88,2-.25.16-.51.27-.75.44-4.8,3.31-7.34,7.12-7.34,11.09s2.54,7.82,7.34,11.1c.31.21.63.49,1,.7A38.79,38.79,0,0,0,667.85,29h-7.71V25.51l-.23,0L634,13.66,659.95,1.85l.19,0V0h4m.76,0h-4.76V1.72L634,13.66l26.1,11.94V29h8.51a42.58,42.58,0,0,1-8-3.83l-1-.63c-4.6-3.14-7.28-6.93-7.28-11s2.69-7.84,7.28-11c.24-.17.49-.15.74-.31C661.79,1.38,663.28,0,664.9,0Z"/><path class="cls-1" d="M624.14,29V25.6L598.35,13.66,624.41,1.93,624.56,0h4.79c-1.51,0-2.91,1.34-4.16,2.14-.25.16-.5.26-.75.42-4.78,3.29-7.31,7.08-7.31,11s2.53,7.76,7.31,11c.31.21.63.45,1,.66A37.67,37.67,0,0,0,633,29Z"/><path d="M629,0c-1.4,0-2.7,1.29-3.88,2-.25.16-.51.27-.75.44-4.8,3.31-7.34,7.12-7.34,11.09s2.54,7.82,7.34,11.1c.31.21.63.49,1,.7A38.79,38.79,0,0,0,632.63,29h-8.49V25.51l.16,0L598.62,13.66,624.24,1.85l-.1,0V0h5m.54,0h-5.54V1.72L598,13.66l26.1,11.94V29h9.3a42.58,42.58,0,0,1-8-3.83l-1-.63c-4.6-3.14-7.28-6.93-7.28-11s2.69-7.84,7.28-11c.24-.17.49-.15.74-.31,1.34-.86,2.83-2.24,4.45-2.24Z"/><path class="cls-1" d="M589.14,29V25.6l-25.9-11.94,26-11.73L589.34,0h4.79c-1.51,0-2.91,1.34-4.16,2.14-.25.16-.5.26-.75.42-4.78,3.29-7.31,7.08-7.31,11s2.53,7.77,7.31,11c.31.21.63.45,1,.66A37.74,37.74,0,0,0,597.81,29Z"/><path d="M593.81,0c-1.4,0-2.7,1.29-3.88,2-.25.16-.51.27-.75.44-4.8,3.31-7.34,7.12-7.34,11.09s2.54,7.82,7.34,11.1c.31.21.63.49,1,.7A38.79,38.79,0,0,0,597.41,29h-8.27V25.51l.05,0L563.45,13.66,589.16,1.85l0,0V0h5m.32,0h-5.32V1.72L563,13.66l26.1,11.94V29h9.08a42.58,42.58,0,0,1-8-3.83l-1-.63c-4.6-3.14-7.28-6.93-7.28-11s2.69-7.84,7.28-11c.24-.17.49-.15.74-.31,1.34-.86,2.83-2.24,4.45-2.24Z"/><path class="cls-1" d="M554.14,29V25.6l-26-11.94,26-11.73,0-1.93h4.79c-1.51,0-2.91,1.34-4.16,2.14-.25.16-.5.26-.75.42-4.78,3.29-7.31,7.08-7.31,11s2.53,7.77,7.31,11c.31.21.63.45,1,.66A37.74,37.74,0,0,0,562.59,29Z"/><path d="M558.59,0c-1.4,0-2.7,1.29-3.88,2-.25.16-.51.27-.75.44-4.8,3.31-7.34,7.12-7.34,11.09s2.54,7.82,7.34,11.1c.31.21.63.49,1,.7A38.78,38.78,0,0,0,562.2,29h-8.05V25.51l-.06,0-25.8-11.81L554.08,1.85l.06,0V0h4m1.1,0h-5.1V1.72L528,13.66l26.1,11.94V29H563a42.58,42.58,0,0,1-8-3.83l-1-.63c-4.6-3.14-7.28-6.93-7.28-11s2.69-7.84,7.28-11c.24-.17.49-.15.74-.31,1.34-.86,2.83-2.24,4.45-2.24Z"/><path class="cls-1" d="M519.14,29V25.6L493,13.66l25.9-11.73,0-1.93h4.79c-1.51,0-2.91,1.34-4.16,2.14-.25.16-.5.26-.75.42-4.78,3.29-7.31,7.08-7.31,11s2.53,7.77,7.31,11c.31.21.63.45,1,.66A37.74,37.74,0,0,0,527.38,29Z"/><path d="M523.38,0c-1.4,0-2.7,1.29-3.88,2-.25.16-.51.27-.75.44-4.8,3.31-7.34,7.12-7.34,11.09s2.54,7.82,7.34,11.1c.31.21.63.49,1,.7A38.79,38.79,0,0,0,527,29h-7.83V25.51l-.17,0L493.13,13.66,519,1.85l.15,0V0h4M524,0h-4.89V1.72L493,13.66l26.1,11.94V29h8.64a42.58,42.58,0,0,1-8-3.83l-1-.63c-4.6-3.14-7.28-6.93-7.28-11s2.69-7.84,7.28-11c.24-.17.49-.15.74-.31C520.92,1.38,522.41,0,524,0Z"/><path class="cls-1" d="M484.14,29V25.6L457.92,13.66,483.76,1.93,483.69,0h4.79c-1.51,0-2.91,1.34-4.16,2.14-.25.16-.5.26-.75.42-4.78,3.29-7.31,7.08-7.31,11s2.53,7.77,7.31,11c.31.21.63.45,1,.66A37.74,37.74,0,0,0,492.16,29Z"/><path d="M488.16,0c-1.4,0-2.7,1.29-3.88,2-.25.16-.51.27-.75.44-4.8,3.31-7.34,7.12-7.34,11.09s2.54,7.82,7.34,11.1c.31.21.63.49,1,.7A38.78,38.78,0,0,0,491.76,29h-7.62V25.51l-.27,0L458,13.66l26-11.81.23,0V0h4m.67,0h-5.67V1.72L457,13.66l26.1,11.94V29h9.42a42.58,42.58,0,0,1-8-3.83l-1-.63c-4.6-3.14-7.28-6.93-7.28-11s2.69-7.84,7.28-11c.24-.17.49-.15.74-.31C485.7,1.38,487.19,0,488.81,0Z"/><path class="cls-1" d="M448.14,29V25.6L422.31,13.66l26-11.73L448.47,0h4.79c-1.51,0-2.91,1.34-4.16,2.14-.25.16-.5.26-.75.42-4.78,3.29-7.31,7.08-7.31,11s2.53,7.77,7.31,11c.31.21.63.45,1,.66A37.68,37.68,0,0,0,456.94,29Z"/><path d="M452.94,0c-1.4,0-2.7,1.29-3.88,2-.25.16-.51.27-.75.44C443.51,5.79,441,9.6,441,13.57s2.54,7.82,7.34,11.1c.31.21.63.49,1,.7A38.79,38.79,0,0,0,456.54,29h-8.4V25.51l.12,0L422.55,13.66,448.21,1.85l-.07,0V0h5m.45,0h-5.45V1.72L422,13.66l26.1,11.94V29h9.21a42.58,42.58,0,0,1-8-3.83l-1-.63c-4.6-3.14-7.28-6.93-7.28-11s2.69-7.84,7.28-11c.24-.17.49-.15.74-.31C450.48,1.38,452,0,453.59,0Z"/><path class="cls-1" d="M413.14,29V25.6L387.2,13.66l26-11.73L413.25,0H418c-1.51,0-2.91,1.34-4.16,2.14-.25.16-.5.26-.75.42-4.78,3.29-7.31,7.08-7.31,11s2.53,7.77,7.31,11c.31.21.63.45,1,.66A37.67,37.67,0,0,0,421.72,29Z"/><path d="M417.72,0c-1.4,0-2.7,1.29-3.88,2-.25.16-.51.27-.75.44-4.8,3.31-7.34,7.12-7.34,11.09s2.54,7.82,7.34,11.1c.31.21.63.49,1,.7A38.79,38.79,0,0,0,421.32,29h-8.18V25.47L387.38,13.66,413.13,1.85l0,0V0h5m.23,0h-5.23V1.72L387,13.66l26.1,11.94V29h9a42.58,42.58,0,0,1-8-3.83l-1-.63c-4.6-3.14-7.28-6.93-7.28-11s2.69-7.84,7.28-11c.24-.17.49-.15.74-.31,1.34-.86,2.83-2.24,4.45-2.24Z"/><path class="cls-1" d="M378.14,29V25.6L352.09,13.66,378,1.93,378,0h4.79c-1.51,0-2.9,1.33-4.16,2.14-.25.16-.5.26-.75.42-4.78,3.29-7.31,7.08-7.31,11s2.53,7.77,7.31,11c.31.21.63.45,1,.66A37.65,37.65,0,0,0,386.51,29Z"/><path d="M382.5,0c-1.4,0-2.7,1.29-3.88,2-.25.16-.51.27-.75.44-4.8,3.31-7.34,7.12-7.34,11.09s2.54,7.82,7.34,11.1c.31.21.63.49,1,.7A38.79,38.79,0,0,0,386.11,29h-8V25.51l-.1,0L352.22,13.66,378,1.85l.1,0V0h4m1,0h-5V1.72L352,13.66l26.1,11.94V29h8.77a42.58,42.58,0,0,1-8-3.83l-1-.63c-4.6-3.14-7.28-6.93-7.28-11s2.69-7.84,7.28-11c.24-.17.49-.15.74-.31C380,1.38,381.54,0,383.16,0Z"/><path class="cls-1" d="M343.14,29V25.6L317,13.66,342.86,1.93l0-1.93h4.79c-1.51,0-2.91,1.34-4.16,2.14-.25.16-.5.26-.75.42-4.78,3.29-7.31,7.08-7.31,11s2.53,7.77,7.31,11c.31.21.63.45,1,.66A37.71,37.71,0,0,0,351.29,29Z"/><path d="M347.29,0c-1.4,0-2.7,1.29-3.88,2-.25.16-.51.27-.75.44-4.8,3.31-7.34,7.12-7.34,11.09s2.54,7.82,7.34,11.1c.31.21.63.49,1,.7A38.79,38.79,0,0,0,350.89,29h-7.75V25.51l-.21,0L317.06,13.66,343,1.85l.18,0V0h4m.8,0h-4.8V1.72L317,13.66l26.1,11.94V29h8.55a42.58,42.58,0,0,1-8-3.83l-1-.63c-4.6-3.14-7.28-6.93-7.28-11s2.69-7.84,7.28-11c.24-.17.49-.15.74-.31,1.34-.86,2.83-2.24,4.45-2.24Z"/><path class="cls-1" d="M307.14,29V25.6L281.37,13.66,307.44,1.93,307.6,0h4.79c-1.51,0-2.9,1.33-4.16,2.14-.25.16-.5.26-.75.42-4.78,3.29-7.31,7.08-7.31,11s2.53,7.77,7.31,11c.31.21.63.45,1,.66A37.71,37.71,0,0,0,316.07,29Z"/><path d="M312.07,0c-1.4,0-2.7,1.29-3.88,2-.25.16-.51.27-.75.44-4.8,3.31-7.34,7.12-7.34,11.09s2.54,7.82,7.34,11.1c.31.21.63.49,1,.7A38.79,38.79,0,0,0,315.67,29h-7.53V25.51l-.32,0L281.89,13.66l26-11.81.26,0V0h4m.58,0h-5.58V1.72L281,13.66l26.1,11.94V29h9.34a42.58,42.58,0,0,1-8-3.83l-1-.63c-4.6-3.14-7.28-6.93-7.28-11s2.69-7.84,7.28-11c.24-.17.49-.15.74-.31C309.61,1.38,311.1,0,312.72,0Z"/><path class="cls-1" d="M272.14,29V25.6L246.26,13.66l26-11.73.1-1.93h4.79c-1.51,0-2.9,1.33-4.16,2.14-.25.16-.5.26-.75.42-4.78,3.29-7.31,7.08-7.31,11s2.53,7.77,7.31,11c.31.21.63.45,1,.66A37.71,37.71,0,0,0,280.85,29Z"/><path d="M276.85,0c-1.4,0-2.7,1.29-3.88,2-.25.16-.51.27-.75.44-4.8,3.31-7.34,7.12-7.34,11.09s2.54,7.82,7.34,11.1c.31.21.63.49,1,.7A38.79,38.79,0,0,0,280.45,29h-8.31V25.51l.07,0L246.48,13.66,272.17,1.85l0,0V0h5m.36,0h-5.36V1.72L246,13.66l26.1,11.94V29h9.12a42.58,42.58,0,0,1-8-3.83l-1-.63c-4.6-3.14-7.28-6.93-7.28-11s2.69-7.84,7.28-11c.24-.17.49-.15.74-.31C274.4,1.38,275.88,0,277.5,0Z"/><path class="cls-1" d="M237.14,29V25.6l-26-11.94,26-11.73,0-1.93H242c-1.51,0-2.91,1.34-4.16,2.14-.25.16-.5.26-.75.42-4.78,3.29-7.31,7.08-7.31,11s2.53,7.77,7.31,11c.31.21.63.45,1,.66A37.68,37.68,0,0,0,245.63,29Z"/><path d="M241.63,0c-1.4,0-2.7,1.29-3.88,2-.25.16-.51.27-.75.44-4.8,3.31-7.34,7.12-7.34,11.09s2.54,7.82,7.34,11.1c.31.21.63.49,1,.7A38.79,38.79,0,0,0,245.23,29h-8.09V25.51l0,0L211.32,13.66,237.09,1.85l0,0V0h4m1.14,0h-5.14V1.72L211,13.66l26.1,11.94V29H246a42.58,42.58,0,0,1-8-3.83l-1-.63c-4.6-3.14-7.28-6.93-7.28-11s2.69-7.84,7.28-11c.24-.17.49-.15.74-.31,1.34-.86,2.83-2.24,4.45-2.24Z"/><path class="cls-1" d="M202.14,29V25.6L176,13.66,202,1.93V0h4.79c-1.51,0-2.91,1.34-4.16,2.14-.25.16-.5.26-.75.42-4.78,3.29-7.31,7.08-7.31,11s2.53,7.77,7.31,11c.31.21.63.45,1,.66A37.71,37.71,0,0,0,210.42,29Z"/><path d="M206.41,0c-1.4,0-2.7,1.29-3.88,2-.25.16-.51.27-.75.44-4.8,3.31-7.34,7.12-7.34,11.09s2.54,7.82,7.34,11.1c.31.21.63.49,1,.7A38.79,38.79,0,0,0,210,29h-7.87V25.51l-.15,0L176.15,13.66,202,1.85l.13,0V0h4m.93,0h-4.93V1.72L176,13.66l26.1,11.94V29h8.68a42.58,42.58,0,0,1-8-3.83l-1-.63c-4.6-3.14-7.28-6.93-7.28-11s2.69-7.84,7.28-11c.24-.17.49-.15.74-.31C204,1.38,205.45,0,207.07,0Z"/><path class="cls-1" d="M167.14,29V25.6L140.94,13.66,166.79,1.93,166.73,0h4.79c-1.51,0-2.91,1.34-4.16,2.14-.25.16-.5.26-.75.42-4.78,3.29-7.31,7.08-7.31,11s2.53,7.77,7.31,11c.31.21.63.45,1,.66A37.71,37.71,0,0,0,175.2,29Z"/><path d="M171.2,0c-1.4,0-2.7,1.29-3.88,2-.25.16-.51.27-.75.44-4.8,3.31-7.34,7.12-7.34,11.09s2.54,7.82,7.34,11.1c.31.21.63.49,1,.7A38.79,38.79,0,0,0,174.8,29h-7.66V25.51l-.26,0L141,13.66,166.93,1.85l.21,0V0h4m.71,0h-4.71V1.72L141,13.66l26.1,11.94V29h8.46a42.58,42.58,0,0,1-8-3.83l-1-.63c-4.6-3.14-7.28-6.93-7.28-11s2.69-7.84,7.28-11c.24-.17.49-.15.74-.31,1.34-.86,2.83-2.24,4.45-2.24Z"/><path class="cls-1" d="M131.14,29V25.6L105.33,13.66l26-11.73L131.51,0h4.79c-1.51,0-2.9,1.33-4.16,2.14-.25.16-.5.26-.75.42-4.78,3.29-7.31,7.08-7.31,11s2.53,7.77,7.31,11c.31.21.63.45,1,.66A37.71,37.71,0,0,0,140,29Z"/><path d="M136,0c-1.4,0-2.7,1.29-3.88,2-.25.16-.51.27-.75.44C126.55,5.79,124,9.6,124,13.57s2.54,7.82,7.34,11.1c.31.21.63.49,1,.7A38.79,38.79,0,0,0,139.58,29h-8.44V25.51l.14,0-25.7-11.81L131.22,1.85l-.08,0V0h5m.49,0h-5.49V1.72L105,13.66l26.1,11.94V29h9.25a42.58,42.58,0,0,1-8-3.83l-1-.63c-4.6-3.14-7.28-6.93-7.28-11s2.69-7.84,7.28-11c.24-.17.49-.15.74-.31C133.52,1.38,135,0,136.63,0Z"/><path class="cls-1" d="M96.14,29V25.6L70.22,13.66l26-11.73L96.29,0h4.79c-1.51,0-2.91,1.34-4.16,2.14-.25.16-.5.26-.75.42-4.78,3.29-7.31,7.08-7.31,11s2.53,7.77,7.31,11c.31.21.63.45,1,.66A37.75,37.75,0,0,0,104.76,29Z"/><path d="M100.76,0c-1.4,0-2.7,1.29-3.88,2-.25.16-.51.27-.75.44-4.8,3.31-7.34,7.12-7.34,11.09s2.54,7.82,7.34,11.1c.31.21.63.49,1,.7A38.79,38.79,0,0,0,104.36,29H96.14V25.51l0,0L70.41,13.66,96.14,1.85V0h5m.27,0H96.14V1.72L70,13.66,96.14,25.6V29h9a42.58,42.58,0,0,1-8-3.83l-1-.63c-4.6-3.14-7.28-6.93-7.28-11s2.69-7.84,7.28-11c.24-.17.49-.15.74-.31C98.31,1.38,99.8,0,101.41,0Z"/><path class="cls-1" d="M61.14,29V25.6l-26-11.94L61,1.93l0-1.93h4.79C64.36,0,63,1.34,61.71,2.14c-.25.16-.5.26-.75.42-4.78,3.29-7.31,7.08-7.31,11s2.53,7.77,7.31,11c.31.21.63.45,1,.66A37.68,37.68,0,0,0,69.54,29Z"/><path d="M65.54,0c-1.4,0-2.7,1.29-3.88,2-.25.16-.51.27-.75.44-4.8,3.31-7.34,7.12-7.34,11.09s2.54,7.82,7.34,11.1c.31.21.63.49,1,.7A38.79,38.79,0,0,0,69.14,29h-8V25.51l-.08,0L35.25,13.66,61.06,1.85l.08,0V0h4M66.2,0H61.14V1.72L35,13.66,61.14,25.6V29H70a42.58,42.58,0,0,1-8-3.83l-1-.63c-4.6-3.14-7.28-6.93-7.28-11s2.69-7.84,7.28-11c.24-.17.49-.15.74-.31C63.09,1.38,64.58,0,66.2,0Z"/><path class="cls-1" d="M26.14,29V25.6L0,13.66,25.89,1.93l0-1.93h4.79c-1.51,0-2.91,1.34-4.16,2.14-.25.16-.5.25-.75.42-4.78,3.27-7.31,7.06-7.31,11s2.53,7.77,7.31,11c.31.21.63.45,1,.66A37.71,37.71,0,0,0,34.33,29Z"/><path d="M30.33,0c-1.4,0-2.7,1.29-3.88,2-.26.16-.51.27-.75.44-4.8,3.29-7.34,7.1-7.34,11.09s2.54,7.82,7.34,11.1c.31.21.63.49,1,.7A38.79,38.79,0,0,0,33.93,29H26.14V25.51l-.19,0L.09,13.66,26,1.85l.16,0V0h4M31,0H26.14V1.72L0,13.66,26.14,25.6V29h8.59a42.58,42.58,0,0,1-8-3.83l-1-.63c-4.6-3.14-7.28-6.93-7.28-11s2.68-7.85,7.28-11c.24-.17.49-.15.74-.31C27.87,1.38,29.36,0,31,0Z"/></g></g></svg>